<svg width="411" height="33" viewBox="0 0 411 33" fill="none" xmlns="http://www.w3.org/2000/svg">
<rect y="3" width="411" height="28" fill="#F2F2F2"/>
<path d="M76.16 12.775V22H75.395V11.35H76.025L83.45 20.725V11.35H84.215V22H83.465L76.16 12.775ZM91.2416 22.075C90.5016 22.075 89.8266 21.925 89.2166 21.625C88.6066 21.315 88.0816 20.905 87.6416 20.395C87.2016 19.885 86.8616 19.31 86.6216 18.67C86.3816 18.02 86.2616 17.355 86.2616 16.675C86.2616 15.965 86.3866 15.29 86.6366 14.65C86.8866 14 87.2366 13.425 87.6866 12.925C88.1466 12.415 88.6766 12.015 89.2766 11.725C89.8866 11.425 90.5466 11.275 91.2566 11.275C92.0066 11.275 92.6816 11.43 93.2816 11.74C93.8916 12.05 94.4166 12.465 94.8566 12.985C95.2966 13.505 95.6366 14.085 95.8766 14.725C96.1166 15.365 96.2366 16.015 96.2366 16.675C96.2366 17.395 96.1116 18.08 95.8616 18.73C95.6116 19.37 95.2566 19.945 94.7966 20.455C94.3466 20.955 93.8166 21.35 93.2066 21.64C92.6066 21.93 91.9516 22.075 91.2416 22.075ZM87.0266 16.675C87.0266 17.285 87.1316 17.87 87.3416 18.43C87.5516 18.99 87.8416 19.49 88.2116 19.93C88.5916 20.37 89.0366 20.72 89.5466 20.98C90.0666 21.24 90.6366 21.37 91.2566 21.37C91.8866 21.37 92.4616 21.235 92.9816 20.965C93.5016 20.695 93.9466 20.335 94.3166 19.885C94.6866 19.435 94.9666 18.935 95.1566 18.385C95.3566 17.825 95.4566 17.255 95.4566 16.675C95.4566 16.065 95.3516 15.48 95.1416 14.92C94.9416 14.36 94.6516 13.86 94.2716 13.42C93.8916 12.98 93.4416 12.63 92.9216 12.37C92.4116 12.11 91.8566 11.98 91.2566 11.98C90.6166 11.98 90.0366 12.115 89.5166 12.385C88.9966 12.655 88.5516 13.015 88.1816 13.465C87.8216 13.915 87.5366 14.42 87.3266 14.98C87.1266 15.53 87.0266 16.095 87.0266 16.675ZM97.535 11.35L101.585 21.04L105.635 11.35H106.445L101.96 22H101.225L96.725 11.35H97.535ZM115.171 21.31V22H108.076V11.35H115.036V12.04H108.841V16.225H114.256V16.885H108.841V21.31H115.171ZM117.26 22V11.35H120.8C121.93 11.35 122.865 11.59 123.605 12.07C124.355 12.54 124.915 13.18 125.285 13.99C125.665 14.79 125.855 15.68 125.855 16.66C125.855 17.74 125.65 18.68 125.24 19.48C124.83 20.28 124.245 20.9 123.485 21.34C122.725 21.78 121.83 22 120.8 22H117.26ZM125.09 16.66C125.09 15.77 124.92 14.975 124.58 14.275C124.25 13.575 123.765 13.03 123.125 12.64C122.495 12.24 121.72 12.04 120.8 12.04H118.025V21.31H120.8C121.73 21.31 122.515 21.105 123.155 20.695C123.795 20.285 124.275 19.73 124.595 19.03C124.925 18.32 125.09 17.53 125.09 16.66ZM130.918 11.35H131.578L136.078 22H135.268L133.783 18.49H128.698L127.213 22H126.388L130.918 11.35ZM133.573 17.86L131.248 12.28L128.878 17.86H133.573ZM137.695 22V11.35H141.235C142.365 11.35 143.3 11.59 144.04 12.07C144.79 12.54 145.35 13.18 145.72 13.99C146.1 14.79 146.29 15.68 146.29 16.66C146.29 17.74 146.085 18.68 145.675 19.48C145.265 20.28 144.68 20.9 143.92 21.34C143.16 21.78 142.265 22 141.235 22H137.695ZM145.525 16.66C145.525 15.77 145.355 14.975 145.015 14.275C144.685 13.575 144.2 13.03 143.56 12.64C142.93 12.24 142.155 12.04 141.235 12.04H138.46V21.31H141.235C142.165 21.31 142.95 21.105 143.59 20.695C144.23 20.285 144.71 19.73 145.03 19.03C145.36 18.32 145.525 17.53 145.525 16.66ZM155.483 21.31V22H148.388V11.35H155.348V12.04H149.153V16.225H154.568V16.885H149.153V21.31H155.483ZM163.651 13.12C163.481 12.93 163.291 12.765 163.081 12.625C162.871 12.475 162.646 12.355 162.406 12.265C162.166 12.165 161.906 12.09 161.626 12.04C161.346 11.99 161.046 11.965 160.726 11.965C159.686 11.965 158.926 12.165 158.446 12.565C157.976 12.955 157.741 13.485 157.741 14.155C157.741 14.605 157.846 14.965 158.056 15.235C158.276 15.495 158.616 15.705 159.076 15.865C159.536 16.025 160.131 16.18 160.861 16.33C161.631 16.49 162.296 16.68 162.856 16.9C163.416 17.11 163.846 17.4 164.146 17.77C164.456 18.14 164.611 18.64 164.611 19.27C164.611 19.74 164.521 20.155 164.341 20.515C164.161 20.865 163.901 21.155 163.561 21.385C163.221 21.615 162.816 21.79 162.346 21.91C161.886 22.03 161.371 22.09 160.801 22.09C160.251 22.09 159.726 22.03 159.226 21.91C158.726 21.79 158.256 21.615 157.816 21.385C157.376 21.155 156.966 20.86 156.586 20.5L156.991 19.885C157.211 20.125 157.456 20.34 157.726 20.53C158.006 20.71 158.306 20.865 158.626 20.995C158.956 21.125 159.306 21.23 159.676 21.31C160.046 21.38 160.431 21.415 160.831 21.415C161.761 21.415 162.486 21.245 163.006 20.905C163.536 20.555 163.801 20.04 163.801 19.36C163.801 18.89 163.681 18.51 163.441 18.22C163.201 17.93 162.831 17.695 162.331 17.515C161.831 17.325 161.206 17.15 160.456 16.99C159.706 16.83 159.066 16.65 158.536 16.45C158.016 16.25 157.621 15.98 157.351 15.64C157.091 15.3 156.961 14.84 156.961 14.26C156.961 13.62 157.116 13.08 157.426 12.64C157.746 12.19 158.191 11.85 158.761 11.62C159.331 11.39 159.986 11.275 160.726 11.275C161.186 11.275 161.611 11.32 162.001 11.41C162.401 11.5 162.766 11.64 163.096 11.83C163.436 12.01 163.751 12.24 164.041 12.52L163.651 13.12Z" fill="#111011"/>
<path d="M275 26.0164C280.523 26.0164 285 21.4779 285 15.8796C285 10.2812 280.523 5.7428 275 5.7428C269.477 5.7428 265 10.2812 265 15.8796C265 21.4779 269.477 26.0164 275 26.0164Z" stroke="#111011" stroke-linecap="round" stroke-linejoin="round"/>
<path d="M278 12.3317C277.315 11.6374 276.109 11.1544 275 11.1241M275 11.1241C273.681 11.0882 272.5 11.6931 272.5 13.3454C272.5 16.3864 278 14.8659 278 17.907C278 19.6414 276.536 20.3866 275 20.3307M275 11.1241V9.29068M272 18.9206C272.644 19.7917 273.843 20.2885 275 20.3307M275 20.3307V22.4685" stroke="#111011" stroke-linecap="round" stroke-linejoin="round"/>
<path d="M293.19 14.53V22.015H292.44V14.53H293.19ZM293.19 11.26V12.79H292.44V11.26H293.19ZM302.223 13.12C302.053 12.93 301.863 12.765 301.653 12.625C301.443 12.475 301.218 12.355 300.978 12.265C300.738 12.165 300.478 12.09 300.198 12.04C299.918 11.99 299.618 11.965 299.298 11.965C298.258 11.965 297.498 12.165 297.018 12.565C296.548 12.955 296.313 13.485 296.313 14.155C296.313 14.605 296.418 14.965 296.628 15.235C296.848 15.495 297.188 15.705 297.648 15.865C298.108 16.025 298.703 16.18 299.433 16.33C300.203 16.49 300.868 16.68 301.428 16.9C301.988 17.11 302.418 17.4 302.718 17.77C303.028 18.14 303.183 18.64 303.183 19.27C303.183 19.74 303.093 20.155 302.913 20.515C302.733 20.865 302.473 21.155 302.133 21.385C301.793 21.615 301.388 21.79 300.918 21.91C300.458 22.03 299.943 22.09 299.373 22.09C298.823 22.09 298.298 22.03 297.798 21.91C297.298 21.79 296.828 21.615 296.388 21.385C295.948 21.155 295.538 20.86 295.158 20.5L295.563 19.885C295.783 20.125 296.028 20.34 296.298 20.53C296.578 20.71 296.878 20.865 297.198 20.995C297.528 21.125 297.878 21.23 298.248 21.31C298.618 21.38 299.003 21.415 299.403 21.415C300.333 21.415 301.058 21.245 301.578 20.905C302.108 20.555 302.373 20.04 302.373 19.36C302.373 18.89 302.253 18.51 302.013 18.22C301.773 17.93 301.403 17.695 300.903 17.515C300.403 17.325 299.778 17.15 299.028 16.99C298.278 16.83 297.638 16.65 297.108 16.45C296.588 16.25 296.193 15.98 295.923 15.64C295.663 15.3 295.533 14.84 295.533 14.26C295.533 13.62 295.688 13.08 295.998 12.64C296.318 12.19 296.763 11.85 297.333 11.62C297.903 11.39 298.558 11.275 299.298 11.275C299.758 11.275 300.183 11.32 300.573 11.41C300.973 11.5 301.338 11.64 301.668 11.83C302.008 12.01 302.323 12.24 302.613 12.52L302.223 13.12ZM308.264 11.35H308.924L313.424 22H312.614L311.129 18.49H306.044L304.559 22H303.734L308.264 11.35ZM310.919 17.86L308.594 12.28L306.224 17.86H310.919ZM315.041 22V11.35H315.806V21.31H322.166V22H315.041ZM330.852 21.31V22H323.757V11.35H330.717V12.04H324.522V16.225H329.937V16.885H324.522V21.31H330.852ZM332.987 18.73V11.245H333.752V18.73H332.987ZM332.987 22V20.47H333.752V22H332.987Z" fill="#111011"/>
<path d="M63.3371 15.451C63.8884 20.0304 66.0526 21.4143 66.0526 21.4143H49C49 21.4143 51.8421 19.5969 51.8421 13.236C51.8421 11.79 52.441 10.4033 53.507 9.38078C54.573 8.35829 56.0188 7.78387 57.5263 7.78387C57.8459 7.78387 58.1627 7.80969 58.4737 7.86011" stroke="black" stroke-linecap="round" stroke-linejoin="round"/>
<path d="M64.1579 12.8953C65.7276 12.8953 67 11.7511 67 10.3396C67 8.92811 65.7276 7.78387 64.1579 7.78387C62.5882 7.78387 61.3158 8.92811 61.3158 10.3396C61.3158 11.7511 62.5882 12.8953 64.1579 12.8953Z" stroke="black" stroke-linecap="round" stroke-linejoin="round"/>
<path d="M59.1653 23.97C58.9987 24.2282 58.7597 24.4426 58.472 24.5915C58.1844 24.7405 57.8583 24.8189 57.5263 24.8189C57.1944 24.8189 56.8683 24.7405 56.5807 24.5915C56.2931 24.4426 56.0539 24.2282 55.8874 23.97" stroke="black" stroke-linecap="round" stroke-linejoin="round"/>
<line x1="229" y1="3" x2="229" y2="31" stroke="black" stroke-opacity="0.17" stroke-width="2"/>
</svg>
