<svg width="40" height="13" viewBox="0 0 40 13" fill="none" xmlns="http://www.w3.org/2000/svg">
<circle cx="5.5" cy="7.5" r="5" stroke="black"/>
<circle cx="34.5" cy="7.5" r="5" stroke="black"/>
<path d="M20.2777 8.07C20.2777 8.65667 20.1677 9.18 19.9477 9.64C19.7277 10.0933 19.4277 10.45 19.0477 10.71C18.6677 10.97 18.2344 11.1 17.7477 11.1C17.2611 11.1 16.8277 10.97 16.4477 10.71C16.0677 10.45 15.7677 10.0933 15.5477 9.64C15.3277 9.18 15.2177 8.65667 15.2177 8.07C15.2177 7.48333 15.3277 6.96333 15.5477 6.51C15.7677 6.05 16.0677 5.69 16.4477 5.43C16.8277 5.16333 17.2611 5.03 17.7477 5.03C18.2344 5.03 18.6677 5.16333 19.0477 5.43C19.4277 5.69 19.7277 6.05 19.9477 6.51C20.1677 6.96333 20.2777 7.48333 20.2777 8.07ZM19.3877 8.07C19.3877 7.63 19.3177 7.24333 19.1777 6.91C19.0377 6.57667 18.8444 6.31667 18.5977 6.13C18.3511 5.94333 18.0677 5.85 17.7477 5.85C17.4211 5.85 17.1344 5.94333 16.8877 6.13C16.6411 6.31667 16.4477 6.57667 16.3077 6.91C16.1677 7.24333 16.0977 7.63 16.0977 8.07C16.0977 8.51 16.1677 8.89667 16.3077 9.23C16.4477 9.55667 16.6411 9.81333 16.8877 10C17.1344 10.1867 17.4211 10.28 17.7477 10.28C18.0677 10.28 18.3511 10.1867 18.5977 10C18.8444 9.81333 19.0377 9.55667 19.1777 9.23C19.3177 8.89667 19.3877 8.51 19.3877 8.07ZM25.0803 10.2V11H21.4903V10.2H22.9103V6.3C22.8503 6.38 22.757 6.46667 22.6303 6.56C22.5036 6.64667 22.3603 6.73 22.2003 6.81C22.0403 6.89 21.8803 6.95667 21.7203 7.01C21.5603 7.05667 21.4136 7.08 21.2803 7.08V6.24C21.427 6.24 21.587 6.2 21.7603 6.12C21.9403 6.03333 22.1136 5.93333 22.2803 5.82C22.447 5.70667 22.587 5.6 22.7003 5.5C22.8203 5.4 22.8903 5.33 22.9103 5.29H23.8103V10.2H25.0803Z" fill="black"/>
<path d="M36.0799 7.09V7.81H34.8999V9.09H34.0999V7.81H32.9199V7.09H34.0999V5.81H34.8999V7.09H36.0799Z" fill="black"/>
<path d="M4.02574 7.67V6.87H6.97574V7.67H4.02574Z" fill="black"/>
</svg>
