<svg width="402" height="75" viewBox="0 0 402 75" fill="none" xmlns="http://www.w3.org/2000/svg">
<g filter="url(#filter0_d_6_464)">
<rect x="4" y="2" width="394" height="63" fill="#BF068E"/>
<path d="M79.9838 19.6H83.5038L94.2638 40.08L98.5838 19.64H103.104L97.0638 48H93.3838L82.7038 28L78.4638 48H73.9438L79.9838 19.6ZM109.437 19.6H127.637L126.797 23.56H113.117L111.397 31.64H123.237L122.477 35.36H110.597L108.757 44.04H122.797L121.957 48H103.397L109.437 19.6ZM129.481 19.6H134.321L137.641 42.8L143.761 32.36L141.841 19.72H146.041L147.241 29.36L152.561 19.72H156.761L149.481 32.36L151.121 42.8L164.281 19.6H169.201L152.041 48H148.241L146.001 35.28L138.321 48H134.521L129.481 19.6ZM184.118 48.28C182.092 48.28 180.172 47.96 178.358 47.32C176.572 46.6533 175.025 45.6933 173.718 44.44L176.638 40.6C176.852 40.9467 177.212 41.3333 177.718 41.76C178.225 42.16 178.852 42.5467 179.598 42.92C180.345 43.2933 181.172 43.6133 182.078 43.88C183.012 44.12 183.998 44.24 185.038 44.24C186.292 44.24 187.358 44.0667 188.238 43.72C189.118 43.3733 189.785 42.88 190.238 42.24C190.718 41.6 190.958 40.8267 190.958 39.92C190.958 39.1467 190.692 38.5067 190.158 38C189.625 37.4933 188.878 37.0667 187.918 36.72C186.985 36.3733 185.878 36.0133 184.598 35.64C183.185 35.2133 181.985 34.7467 180.998 34.24C180.038 33.7067 179.305 33.0667 178.798 32.32C178.318 31.5733 178.078 30.6533 178.078 29.56C178.078 27.96 178.385 26.5333 178.998 25.28C179.638 24.0267 180.505 22.96 181.598 22.08C182.718 21.2 183.985 20.5333 185.398 20.08C186.838 19.6267 188.345 19.4 189.918 19.4C191.145 19.4 192.278 19.5467 193.318 19.84C194.385 20.1067 195.345 20.48 196.198 20.96C197.052 21.44 197.798 21.9867 198.438 22.6L195.638 26.28C195.478 25.9867 195.185 25.68 194.758 25.36C194.358 25.0133 193.852 24.6933 193.238 24.4C192.652 24.1067 191.985 23.8667 191.238 23.68C190.518 23.4933 189.758 23.4 188.958 23.4C187.625 23.4 186.518 23.6 185.638 24C184.758 24.4 184.092 24.9467 183.638 25.64C183.212 26.3333 182.998 27.1333 182.998 28.04C182.998 28.7333 183.212 29.3067 183.638 29.76C184.092 30.2133 184.732 30.6 185.558 30.92C186.412 31.2133 187.452 31.5333 188.678 31.88C190.172 32.28 191.452 32.7467 192.518 33.28C193.612 33.8133 194.465 34.5067 195.078 35.36C195.692 36.1867 195.998 37.2533 195.998 38.56C195.998 40.24 195.678 41.7067 195.038 42.96C194.398 44.1867 193.518 45.2 192.398 46C191.278 46.7733 189.998 47.3467 188.558 47.72C187.145 48.0933 185.665 48.28 184.118 48.28ZM204.632 19.6H222.832L221.992 23.56H208.312L206.592 31.64H218.432L217.672 35.36H205.792L203.952 44.04H217.992L217.152 48H198.592L204.632 19.6ZM235.756 19.6H239.716L244.276 48H239.556L238.436 40.28H228.236L223.876 48H219.156L235.756 19.6ZM238.276 36.96L236.676 24.76L229.716 36.96H238.276ZM256.384 48.28C254.357 48.28 252.437 47.96 250.624 47.32C248.837 46.6533 247.291 45.6933 245.984 44.44L248.904 40.6C249.117 40.9467 249.477 41.3333 249.984 41.76C250.491 42.16 251.117 42.5467 251.864 42.92C252.611 43.2933 253.437 43.6133 254.344 43.88C255.277 44.12 256.264 44.24 257.304 44.24C258.557 44.24 259.624 44.0667 260.504 43.72C261.384 43.3733 262.051 42.88 262.504 42.24C262.984 41.6 263.224 40.8267 263.224 39.92C263.224 39.1467 262.957 38.5067 262.424 38C261.891 37.4933 261.144 37.0667 260.184 36.72C259.251 36.3733 258.144 36.0133 256.864 35.64C255.451 35.2133 254.251 34.7467 253.264 34.24C252.304 33.7067 251.571 33.0667 251.064 32.32C250.584 31.5733 250.344 30.6533 250.344 29.56C250.344 27.96 250.651 26.5333 251.264 25.28C251.904 24.0267 252.771 22.96 253.864 22.08C254.984 21.2 256.251 20.5333 257.664 20.08C259.104 19.6267 260.611 19.4 262.184 19.4C263.411 19.4 264.544 19.5467 265.584 19.84C266.651 20.1067 267.611 20.48 268.464 20.96C269.317 21.44 270.064 21.9867 270.704 22.6L267.904 26.28C267.744 25.9867 267.451 25.68 267.024 25.36C266.624 25.0133 266.117 24.6933 265.504 24.4C264.917 24.1067 264.251 23.8667 263.504 23.68C262.784 23.4933 262.024 23.4 261.224 23.4C259.891 23.4 258.784 23.6 257.904 24C257.024 24.4 256.357 24.9467 255.904 25.64C255.477 26.3333 255.264 27.1333 255.264 28.04C255.264 28.7333 255.477 29.3067 255.904 29.76C256.357 30.2133 256.997 30.6 257.824 30.92C258.677 31.2133 259.717 31.5333 260.944 31.88C262.437 32.28 263.717 32.7467 264.784 33.28C265.877 33.8133 266.731 34.5067 267.344 35.36C267.957 36.1867 268.264 37.2533 268.264 38.56C268.264 40.24 267.944 41.7067 267.304 42.96C266.664 44.1867 265.784 45.2 264.664 46C263.544 46.7733 262.264 47.3467 260.824 47.72C259.411 48.0933 257.931 48.28 256.384 48.28ZM282.099 48.2C280.445 48.2 278.979 47.88 277.699 47.24C276.419 46.6 275.339 45.7333 274.459 44.64C273.605 43.5467 272.952 42.2933 272.499 40.88C272.072 39.44 271.859 37.96 271.859 36.44C271.859 34.7067 272.152 33.0133 272.739 31.36C273.325 29.7067 274.139 28.16 275.179 26.72C276.219 25.28 277.432 24.0133 278.819 22.92C280.205 21.8267 281.699 20.9733 283.299 20.36C284.925 19.72 286.592 19.4 288.299 19.4C289.925 19.4 291.365 19.7333 292.619 20.4C293.899 21.04 294.979 21.92 295.859 23.04C296.739 24.16 297.392 25.4267 297.819 26.84C298.245 28.2533 298.459 29.72 298.459 31.24C298.459 32.9467 298.165 34.6267 297.579 36.28C297.019 37.9333 296.219 39.48 295.179 40.92C294.139 42.3333 292.925 43.5867 291.539 44.68C290.152 45.7733 288.659 46.64 287.059 47.28C285.459 47.8933 283.805 48.2 282.099 48.2ZM282.979 44.16C284.552 44.16 285.992 43.7867 287.299 43.04C288.632 42.2933 289.792 41.3067 290.779 40.08C291.765 38.8267 292.525 37.4667 293.059 36C293.592 34.5067 293.859 33.0267 293.859 31.56C293.859 30.12 293.605 28.7867 293.099 27.56C292.619 26.3333 291.899 25.3467 290.939 24.6C289.979 23.8533 288.792 23.48 287.379 23.48C285.832 23.48 284.379 23.8533 283.019 24.6C281.685 25.32 280.525 26.3067 279.539 27.56C278.579 28.7867 277.819 30.1467 277.259 31.64C276.725 33.1067 276.459 34.5867 276.459 36.08C276.459 37.52 276.699 38.8533 277.179 40.08C277.685 41.3067 278.419 42.2933 279.379 43.04C280.365 43.7867 281.565 44.16 282.979 44.16ZM305.843 19.6H309.363L320.123 40.08L324.443 19.64H328.963L322.923 48H319.243L308.563 28L304.323 48H299.803L305.843 19.6Z" fill="black"/>
</g>
<defs>
<filter id="filter0_d_6_464" x="0" y="0" width="402" height="75" filterUnits="userSpaceOnUse" color-interpolation-filters="sRGB">
<feFlood flood-opacity="0" result="BackgroundImageFix"/>
<feColorMatrix in="SourceAlpha" type="matrix" values="0 0 0 0 0 0 0 0 0 0 0 0 0 0 0 0 0 0 127 0" result="hardAlpha"/>
<feOffset dy="4"/>
<feGaussianBlur stdDeviation="2"/>
<feComposite in2="hardAlpha" operator="out"/>
<feColorMatrix type="matrix" values="0 0 0 0 0 0 0 0 0 0 0 0 0 0 0 0 0 0 0.25 0"/>
<feBlend mode="normal" in2="BackgroundImageFix" result="effect1_dropShadow_6_464"/>
<feBlend mode="normal" in="SourceGraphic" in2="effect1_dropShadow_6_464" result="shape"/>
</filter>
</defs>
</svg>
