<svg width="41" height="41" viewBox="0 0 41 41" fill="none" xmlns="http://www.w3.org/2000/svg">
<path d="M34.1825 38.78C35.7059 38.78 36.941 37.5449 36.941 36.0215C36.941 34.4981 35.7059 33.263 34.1825 33.263C32.6591 33.263 31.424 34.4981 31.424 36.0215C31.424 37.5449 32.6591 38.78 34.1825 38.78Z" fill="black" stroke="black" stroke-width="3.15" stroke-linecap="round" stroke-linejoin="round"/>
<path d="M15.7925 38.78C17.3159 38.78 18.551 37.5449 18.551 36.0215C18.551 34.4981 17.3159 33.263 15.7925 33.263C14.269 33.263 13.034 34.4981 13.034 36.0215C13.034 37.5449 14.269 38.78 15.7925 38.78Z" fill="black" stroke="black" stroke-width="3.15" stroke-linecap="round" stroke-linejoin="round"/>
<path d="M7.517 5.678H38.78L35.102 25.907H11.195L7.517 5.678ZM7.517 5.678C7.21049 4.45199 5.678 2 2 2" stroke="black" stroke-width="3.15" stroke-linecap="round" stroke-linejoin="round"/>
<path d="M35.102 25.907H11.195H7.94138C4.66003 25.907 2.91949 27.3436 2.91949 29.585C2.91949 31.8264 4.66003 33.263 7.94138 33.263H34.1825" stroke="black" stroke-width="3.15" stroke-linecap="round" stroke-linejoin="round"/>
</svg>
