<svg width="41" height="41" viewBox="0 0 41 41" fill="none" xmlns="http://www.w3.org/2000/svg">
<path d="M20.39 2C10.2335 2 2 10.2335 2 20.39C2 30.5464 10.2335 38.78 20.39 38.78C30.5464 38.78 38.78 30.5464 38.78 20.39C38.78 10.2335 30.5464 2 20.39 2Z" stroke="black" stroke-width="2.7585" stroke-linecap="round" stroke-linejoin="round"/>
<path d="M6.17639 32.0597C6.17639 32.0597 10.2756 26.8265 20.39 26.8265C30.5045 26.8265 34.6038 32.0597 34.6038 32.0597" stroke="black" stroke-width="2.7585" stroke-linecap="round" stroke-linejoin="round"/>
<path d="M20.39 20.39C23.437 20.39 25.907 17.92 25.907 14.873C25.907 11.826 23.437 9.35599 20.39 9.35599C17.3429 9.35599 14.873 11.826 14.873 14.873C14.873 17.92 17.3429 20.39 20.39 20.39Z" stroke="black" stroke-width="2.7585" stroke-linecap="round" stroke-linejoin="round"/>
</svg>
